<svg width="144" height="144" viewBox="0 0 144 144" xmlns="http://www.w3.org/2000/svg">
  <defs>
    <linearGradient id="soccerGradient" x1="0%" y1="0%" x2="100%" y2="100%">
      <stop offset="0%" style="stop-color:#22c55e;stop-opacity:1" />
      <stop offset="100%" style="stop-color:#16a34a;stop-opacity:1" />
    </linearGradient>
  </defs>
  
  <!-- Background circle -->
  <circle cx="72" cy="72" r="70" fill="url(#soccerGradient)" stroke="#ffffff" stroke-width="4"/>
  
  <!-- Soccer ball pattern -->
  <g fill="#ffffff" opacity="0.9">
    <!-- Pentagon in center -->
    <polygon points="72,45 85,55 80,72 64,72 59,55" stroke="#16a34a" stroke-width="2"/>
    
    <!-- Hexagons around -->
    <polygon points="85,55 98,45 108,60 98,75 85,75 80,60" fill="none" stroke="#16a34a" stroke-width="2"/>
    <polygon points="59,55 46,45 36,60 46,75 59,75 64,60" fill="none" stroke="#16a34a" stroke-width="2"/>
    <polygon points="80,72 85,87 72,99 59,87 64,72" fill="none" stroke="#16a34a" stroke-width="2"/>
  </g>
  
  <!-- Small soccer field lines for extra detail -->
  <g stroke="#ffffff" stroke-width="1" opacity="0.6" fill="none">
    <line x1="30" y1="72" x2="114" y2="72"/>
    <circle cx="72" cy="72" r="15"/>
  </g>
</svg>